<svg xmlns="http://www.w3.org/2000/svg" width="19" height="19" viewBox="0 0 19 19" fill="none">
  <path d="M1.00398 18.5792C0.723461 18.5787 0.456046 18.4604 0.266978 18.2532C0.0744233 18.0476 -0.0212578 17.7697 0.00397781 17.4892L0.248978 14.7951L11.567 3.48115L15.104 7.01715L3.78898 18.3302L1.09498 18.5752C1.06398 18.5782 1.03298 18.5792 1.00398 18.5792ZM15.81 6.31015L12.274 2.77415L14.395 0.65315C14.5825 0.465373 14.8371 0.359863 15.1025 0.359863C15.3679 0.359863 15.6224 0.465373 15.81 0.65315L17.931 2.77415C18.1188 2.96172 18.2243 3.21624 18.2243 3.48165C18.2243 3.74706 18.1188 4.00158 17.931 4.18915L15.811 6.30915L15.81 6.31015Z" fill="#323232"/>
</svg>