<svg xmlns="http://www.w3.org/2000/svg" width="16" height="16" viewBox="0 0 16 16" fill="none">
  <path fill-rule="evenodd" clip-rule="evenodd" d="M7.71145 5.09139C7.67679 5.11595 7.6446 5.14545 7.61589 5.17991L5.11589 8.17991L5.06454 8.25411C4.94774 8.4604 4.99134 8.72697 5.17991 8.88411C5.39205 9.06089 5.70733 9.03223 5.88411 8.82009L7.5 6.882L7.5 13.5L7.50806 13.5899C7.55039 13.8231 7.75454 14 8 14C8.27614 14 8.5 13.7761 8.5 13.5L8.5 6.882L10.1159 8.82009L10.1796 8.88398C10.3615 9.03606 10.6315 9.04125 10.8201 8.88411C11.0322 8.70733 11.0609 8.39205 10.8841 8.17991L8.38411 5.17991L8.32214 5.11759L8.24209 5.06222L8.18128 5.03387L8.10929 5.01198C8.07411 5.00414 8.03754 5 8 5L7.91073 5.00794L7.83807 5.0268L7.77869 5.05138L7.71145 5.09139ZM0.00805504 6.58988C0.0503906 6.82313 0.25454 7 0.499999 7C0.776142 7 0.999999 6.77614 0.999999 6.5L0.999999 4.5L1.00687 4.35554C1.07955 3.59489 1.7203 3 2.5 3L13.5 3L13.6445 3.00687C14.4051 3.07955 15 3.7203 15 4.5L15 6.5L15.0081 6.58988C15.0504 6.82312 15.2545 7 15.5 7C15.7761 7 16 6.77614 16 6.5L16 4.5L15.9947 4.33562C15.91 3.03154 14.8255 2 13.5 2L2.5 2L2.33562 2.00532C1.03154 2.08996 -9.46394e-07 3.17452 -8.30516e-07 4.5L-6.55671e-07 6.5L0.00805504 6.58988Z" fill="white"/>
</svg>