<svg xmlns="http://www.w3.org/2000/svg" width="16" height="16" viewBox="0 0 16 16" fill="none">
  <path fill-rule="evenodd" clip-rule="evenodd" d="M12.9351 4.89114L12.9358 4.8918C13.4458 5.40247 13.4664 6.21447 12.9811 6.70114L6.9831 12.6991C6.76643 12.9158 6.4791 13.0498 6.17377 13.0778L3.39377 13.3305C3.37377 13.3325 3.35377 13.3331 3.3331 13.3331C3.15777 13.3331 2.98777 13.2638 2.86177 13.1378C2.72177 12.9978 2.65177 12.8031 2.6691 12.6065L2.92177 9.82647C2.94977 9.5218 3.08443 9.2338 3.30177 9.01714L9.2991 3.0198C9.7671 2.5498 10.6158 2.57314 11.1098 3.0658L12.9351 4.89114ZM10.6791 7.11911L8.88241 5.32245L10.1811 4.02311L11.9771 5.81911L10.6791 7.11911ZM6.05311 11.7498L4.06844 11.9305L4.24444 9.9598L7.98911 6.21513L9.78644 8.01246L6.05311 11.7498Z" fill="#EEF4FF"/>
  <mask id="mask0_50_3342" style="mask-type:luminance" maskUnits="userSpaceOnUse" x="2" y="2" width="12" height="12">
    <path fill-rule="evenodd" clip-rule="evenodd" d="M12.9351 4.89114L12.9358 4.8918C13.4458 5.40247 13.4664 6.21447 12.9811 6.70114L6.9831 12.6991C6.76643 12.9158 6.4791 13.0498 6.17377 13.0778L3.39377 13.3305C3.37377 13.3325 3.35377 13.3331 3.3331 13.3331C3.15777 13.3331 2.98777 13.2638 2.86177 13.1378C2.72177 12.9978 2.65177 12.8031 2.6691 12.6065L2.92177 9.82647C2.94977 9.5218 3.08443 9.2338 3.30177 9.01714L9.2991 3.0198C9.7671 2.5498 10.6158 2.57314 11.1098 3.0658L12.9351 4.89114ZM10.6791 7.11911L8.88241 5.32245L10.1811 4.02311L11.9771 5.81911L10.6791 7.11911ZM6.05311 11.7498L4.06844 11.9305L4.24444 9.9598L7.98911 6.21513L9.78644 8.01246L6.05311 11.7498Z" fill="white"/>
  </mask>
  <g mask="url(#mask0_50_3342)">
  </g>
</svg>